PathFileType	4	(X/Y/Z)	Patient4_TMGait_0pt4_02_left_13.trc.trc
DataRate	CameraRate	NumFrames	NumMarkers	Units	OrigDataRate	OrigDataStartFrame	OrigNumFrames
74.866310160428	74.866310160428	6	33	mm	74.866310160428	53	       141
Frame#	Time	Sacral			L.Shoulder			Chest			R.Shoulder			Neck			R.ASIS			L.ASIS			R.Thigh.Superior			R.Thigh.Lateral			R.Thigh.Inferior			R.Patella			L.Thigh.Superior			L.Thigh.Lateral			L.Thigh.Inferior			L.Patella			L.Shank.Superior			L.Shank.Lateral			L.Shank.Inferior			R.Shank.Superior			R.Shank.Lateral			R.Shank.Inferior			R.Heel			R.Midfoot.Superior			R.Midfoot.Lateral			R.Toe			L.Heel			L.Midfoot.Lateral			L.Midfoot.Superior			L.Toe			L.Elbow			L.Wrist			R.Elbow			R.Wrist			
		X1	Y1	Z1	X2	Y2	Z2	X3	Y3	Z3	X4	Y4	Z4	X5	Y5	Z5	X6	Y6	Z6	X7	Y7	Z7	X8	Y8	Z8	X9	Y9	Z9	X10	Y10	Z10	X11	Y11	Z11	X12	Y12	Z12	X13	Y13	Z13	X14	Y14	Z14	X15	Y15	Z15	X16	Y16	Z16	X17	Y17	Z17	X18	Y18	Z18	X19	Y19	Z19	X20	Y20	Z20	X21	Y21	Z21	X22	Y22	Z22	X23	Y23	Z23	X24	Y24	Z24	X25	Y25	Z25	X26	Y26	Z26	X27	Y27	Z27	X28	Y28	Z28	X29	Y29	Z29	X30	Y30	Z30	X31	Y31	Z31	X32	Y32	Z32	X33	Y33	Z33	

53	18.034571428571	850.310789160158	1005.745226730332	417.264156188588	1027.783165938448	1427.400788231597	208.384087538756	1127.410038927292	1372.185077102105	375.936409733545	1038.555918003819	1453.913732138415	543.522196534989	1006.415216292120	1498.554140209523	360.442882207509	1082.192309711287	954.182999275680	532.864870016575	1065.298353042916	967.124964333544	258.598478387090	1169.929544453165	784.811027504608	511.584297778239	1132.711158628412	663.514241852806	590.792887260994	1225.254883631325	626.190449360315	515.995089164733	1249.728306178471	521.146092300453	540.555331710600	1112.521971334957	753.570493252933	287.651646525720	1020.440526641288	638.067112085208	231.123658313351	1105.283763557235	560.320521896185	291.911054876814	1104.202127493097	492.078796563818	302.769563146543	1078.332246986844	419.258613426114	296.644631848032	987.714165137239	303.325552830013	249.520668442339	1042.437183567849	194.562236160637	323.168310090272	1189.209060637934	436.526898173993	549.754974747441	1081.215580235174	374.803618294081	615.790910262419	1087.719888121988	264.053092154699	568.777945548756	903.964424601061	159.256937891780	550.496622157650	1081.655540954698	139.640142082662	582.269194454689	977.779530286993	116.558920122908	622.806239671875	1172.097402337620	47.639474976341	609.972593899296	916.160400186216	38.249412904161	369.775902390745	990.670868062455	34.411591937144	289.145269353254	1072.959530184978	97.439941735505	315.684261097316	1202.440015083211	47.305547233402	290.521410616174	1045.910830325721	1074.812722372700	92.883153219612	1177.009819452112	847.859487583870	80.230213426936	983.519364690068	1118.599570445106	685.773181782352	1051.488782947161	865.740222490837	696.818745596174	
54	18.047928571429	849.063603959622	1006.389375104063	415.954521287075	1029.134632036060	1427.557739434708	207.635791864225	1127.190789571015	1372.253774605677	376.046728653364	1037.127453520483	1454.274728570468	542.814554804535	1006.378690294398	1498.846499987585	359.610004992264	1080.470880902502	954.919252809923	532.784827837359	1064.889821127831	967.467187441995	258.330701929626	1168.714978013391	786.304718297568	511.115348478570	1132.362384658523	665.032192740698	590.848269439137	1224.151860623376	627.701594491600	515.301226640109	1250.191645897277	524.743601542869	539.950454364803	1109.859100414187	753.107428699502	288.817191307497	1017.237738595916	638.284089611314	230.847192635420	1100.757600583420	559.878494364845	292.492213622959	1098.887196018221	491.786852955106	303.263285019134	1073.148074342229	419.184925052164	296.833983285914	982.607786143357	303.294066616603	249.434048199129	1037.087465156755	194.519961770825	323.253043962703	1194.051191438536	438.590387245306	550.244970392911	1090.899035925156	371.057882940047	617.831215876875	1103.555065160430	260.682980172416	571.123936330868	926.530550899025	145.820569037183	554.952883701407	1105.112459891498	135.357346363518	585.168549024354	1003.069871912632	107.082346144935	626.698066294371	1200.375307000225	48.188276022666	612.189809457174	910.776949766043	38.229438158260	369.778213360964	985.292995314929	34.404581727415	289.149992654269	1067.587400995826	97.415536182232	315.719092314895	1197.064132224605	47.296227090370	290.555305268381	1051.334718624413	1075.277110008797	92.201404896339	1187.332839448425	850.979146945110	82.047925848577	973.386583262122	1121.677858535186	686.536699617031	1031.342070739956	866.696438455489	702.786978426141	
55	18.061285714286	847.852925708024	1006.950467197516	414.814574357269	1030.563110757671	1427.561980995185	207.058456307082	1127.076878273378	1372.161047418248	376.295395483680	1035.888303570769	1454.520110937552	542.257483682776	1006.436157604361	1499.014042137252	358.953243966750	1078.771952575818	955.440465687068	532.882175195166	1064.520921741886	967.684601370183	258.199454587731	1167.019186907001	787.084910527127	510.783175124054	1131.140960022820	666.047410103846	591.072605214615	1221.920238823556	628.335794011440	514.655294566869	1249.402727435464	527.761072108803	539.331277625158	1107.267366741617	752.622231015903	289.951855926588	1014.113889464776	638.447721471578	230.586556831146	1096.376471205042	559.428982931644	292.975218947789	1093.752627094021	491.472273330886	303.639294617451	1068.111468850663	419.073426380916	296.959480829549	977.578183046149	303.258567709880	249.335001292899	1031.800664644414	194.452561646871	323.300581383420	1198.016745596115	440.386180334988	550.854194616669	1100.404791950881	366.956804925093	620.073125878200	1119.667892022989	257.403081412216	573.614007852539	950.544915384486	132.226605321670	559.492025137810	1129.546400989702	131.544952681168	588.284886984146	1029.672819862810	97.845695828598	630.699356520663	1229.608842077095	49.676481055818	614.634573897050	905.415640350988	38.216705072868	369.780171236482	979.928056027540	34.397229626189	289.157808708540	1062.245910391325	97.365087053520	315.763579667200	1191.709419298636	47.220478115474	290.600030172915	1056.437721414657	1075.606613700432	91.785245829640	1197.670995908230	854.313215714515	84.200787754111	963.581296529584	1124.815166271380	687.179064040133	1012.055774848734	868.325049526294	708.100370444669	
56	18.074642857143	846.698276987041	1007.425339968137	413.856226120679	1032.019814156137	1427.410640784080	206.663165901383	1127.057982176445	1371.914234743437	376.679413020910	1034.854286370012	1454.657078469093	541.864418532378	1006.578684669005	1499.057748591801	358.480153543566	1077.114336193583	955.729278211192	533.145885844241	1064.174139935296	967.778668915877	258.194890069960	1164.827232543897	787.119896877810	510.607010595685	1129.057651391445	666.573853545731	591.511409163661	1218.621714734772	628.127329515806	514.133015592356	1247.443742107482	530.196907581904	538.773756919604	1104.764164738520	752.106270861472	290.953299664935	1011.043082035565	638.562258398777	230.345241568699	1092.137181764979	558.963709434223	293.325430712808	1088.803232256290	491.135871432273	303.882022085336	1063.225065385498	418.927589606104	297.012834395455	972.621172499778	303.222890889989	249.220541515677	1026.576029068705	194.361877115294	323.308743636551	1201.102912578103	441.979842348255	551.612637296168	1109.636541111657	362.724838181317	622.442305899836	1135.831789635602	254.503411735089	576.145157424884	975.730137530809	119.030755173530	563.857220572373	1154.580716802885	128.610123795822	591.485313791861	1057.198017992575	89.332580535448	634.580329500639	1259.276015764225	52.446399683297	617.171641084470	900.072971974177	38.211011592628	369.780415144683	974.574106190606	34.389863063692	289.167852139718	1056.930035334842	97.292615777136	315.813212209231	1186.372867867491	47.086242741220	290.649896395398	1061.210082447869	1075.788832600413	91.626118000626	1207.984624476130	857.882183665112	86.640547380937	954.156021957636	1127.968530586291	687.671037647292	993.724275441645	870.471069555776	712.748091049811	
57	18.088000000000	845.618096273859	1007.816574241027	413.086357158287	1033.454681443722	1427.114283745164	206.460515607349	1127.121782158637	1371.530215346476	377.195211403955	1034.033977338185	1454.699529766582	541.648172434022	1006.795282132865	1498.987179153047	358.197251577737	1075.514870878872	955.782917336806	533.560750226051	1063.834769798948	967.758682366712	258.310782976392	1162.146785292709	786.418702354747	510.607792372270	1126.172426037590	666.652051213715	592.203995937561	1214.379472830055	627.159696277742	513.808261562151	1244.447329947602	532.079803027231	538.356662484310	1102.360234970702	751.552651986502	291.760034127356	1008.004381619060	638.637315206304	230.137017837434	1088.023129148980	558.476514662491	293.542084012004	1084.024454796028	490.780665562068	304.005629948749	1058.476741238116	418.754930194414	297.005524909739	967.728780931784	303.191694594109	249.095883306185	1021.407135044647	194.252202735149	323.285093222910	1203.338232113843	443.439170339358	552.542306002504	1118.492281696170	358.570466982988	624.861928286796	1151.789768789453	252.222278256075	578.612751328495	1001.692261866533	106.723504588553	567.823526454718	1179.768753704307	126.874362227007	594.623237519918	1085.172002102914	81.939295760669	638.127423147661	1288.810277555237	56.741323416099	619.635402627405	894.743133072401	38.211488315075	369.778476896140	969.227950068959	34.382942711773	289.179677508972	1051.632437968719	97.203631460849	315.865323328551	1181.049801946527	46.906360324556	290.699781356268	1065.647714777148	1075.824921508273	91.715430480447	1218.229092152885	861.713375532216	89.325797287278	945.167896992068	1131.099171539329	688.001328706227	976.433909397584	872.989415202784	716.736284065461	
58	18.101357142857	844.628014002775	1008.129346675635	412.507046569413	1034.820909208415	1426.694883646726	206.459224546740	1127.253653454384	1371.033399952852	377.839454566020	1033.425598425820	1454.664801589478	541.620038988723	1007.072353207577	1498.818590368956	358.109648763388	1073.988327867101	955.613820539112	534.110717862614	1063.498082399391	967.643395468274	258.545584870623	1159.017968883991	785.037503950008	510.803738134311	1122.601167608027	666.343339292382	593.173943071482	1209.380072194256	625.559002291909	513.741292417709	1240.593931332818	533.462505356271	538.147876117596	1100.063447203566	750.958150907131	292.357383866030	1004.986601731859	638.685506197743	229.983355685150	1084.009955309093	557.964630342416	293.655563135344	1079.388627735593	490.411436481476	304.048459913494	1053.843885035372	418.565237030219	296.965183189550	962.891097270407	303.170121857625	248.972895423533	1016.283762217867	194.129565440267	323.244521884719	1204.781683705700	444.821653973191	553.648210201462	1126.865470336222	354.671801032166	627.256221952822	1167.257900676218	250.720830368202	580.919284711117	1027.917305588709	95.696262757123	571.222330884557	1204.598151190769	126.530773246717	597.548619758572	1113.041107038549	75.941305353498	641.166410866495	1317.609566101499	62.657413923360	621.847513616834	889.419227382452	38.216928787199	369.774531009355	963.885771605834	34.377066422743	289.193030563463	1046.344762125346	97.104483064840	315.918947765343	1175.734672054089	46.696748506919	290.745624170004	1069.749726666375	1075.728425271865	92.043268329103	1228.353561848699	865.837758379843	92.222616960653	936.678825502558	1134.167715727042	688.176196710420	960.268780750649	875.743765551871	720.083775157388	
